<!DOCTYPE svg PUBLIC "-//W3C//DTD SVG 1.1//EN" "http://www.w3.org/Graphics/SVG/1.1/DTD/svg11.dtd">
<!-- Uploaded to: SVG Repo, www.svgrepo.com, Transformed by: SVG Repo Mixer Tools -->
<svg width="64px" height="64px" viewBox="0 0 36 36" xmlns="http://www.w3.org/2000/svg" xmlns:xlink="http://www.w3.org/1999/xlink" aria-hidden="true" role="img" class="iconify iconify--twemoji" preserveAspectRatio="xMidYMid meet" fill="#C89933">
<g id="SVGRepo_bgCarrier" stroke-width="0"/>
<g id="SVGRepo_tracerCarrier" stroke-linecap="round" stroke-linejoin="round"/>
<g id="SVGRepo_iconCarrier">
<path fill="#ffffff" d="M0 14h36v8H0z"/>
<path fill="#C89933" d="M32 5H4a4 4 0 0 0-4 4v5h36V9a4 4 0 0 0-4-4zM0 27a4 4 0 0 0 4 4h28a4 4 0 0 0 4-4v-5H0v5z"/>
<path fill="#C89933" d="M18.265 17.76l-.249-.766l-.249.766h-.806l.652.473l-.249.767l.652-.474l.652.474l-.249-.767l.652-.473zm5.332 2.48l-.249.766l.652-.473l.652.473l-.249-.766l.652-.473h-.806L24 19l-.249.767h-.806zm.652-4.48L24 14.994l-.249.766h-.806l.652.473l-.249.767l.652-.474l.652.474l-.249-.767l.652-.473zm-12.707 4.48l-.249.766l.652-.473l.652.473l-.249-.766l.652-.473h-.806L11.945 19l-.249.767h-.806zm.652-4.48l-.249-.766l-.249.766h-.806l.652.473l-.249.767l.652-.474l.652.474l-.249-.767l.652-.473z"/>
</g>
</svg>